<?xml version="1.0" encoding="utf-8"?>
<svg version="1.1" xmlns:xlink="http://www.w3.org/1999/xlink" width="40px" height="50px" xmlns="http://www.w3.org/2000/svg">
  <defs>
    <filter x="576px" y="41px" width="40px" height="50px" filterUnits="userSpaceOnUse" id="filter61">
      <feOffset dx="1" dy="1" in="SourceAlpha" result="shadowOffsetInner" />
      <feGaussianBlur stdDeviation="2.5" in="shadowOffsetInner" result="shadowGaussian" />
      <feComposite in2="shadowGaussian" operator="atop" in="SourceAlpha" result="shadowComposite" />
      <feColorMatrix type="matrix" values="0 0 0 0 0  0 0 0 0 0  0 0 0 0 0  0 0 0 0.698039215686274 0  " in="shadowComposite" />
    </filter>
    <g id="widget62">
      <path d="M 595 84.0369284683536  C 589.2 74.4073405959099  580.5 68.6295878724437  580.5 59  C 580.5 53.9857142857143  583.4 45.5  595 45.5  C 606.6 45.5  609.5 53.9857142857143  609.5 59  C 609.5 68.6295878724437  600.8 74.4073405959099  595 84.0369284683536  Z " fill-rule="nonzero" fill="#ac0000" stroke="none" />
      <path d="M 595 85  C 589 75  580 69  580 59  C 580 53.8  583 45  595 45  C 607 45  610 53.8  610 59  C 610 69  601 75  595 85  Z M 595 83.0738569367072  C 600.6 73.8146811918198  609 68.2591757448874  609 59  C 609 54.1714285714286  606.2 46  595 46  C 583.8 46  581 54.1714285714286  581 59  C 581 68.2591757448874  589.4 73.8146811918198  595 83.0738569367072  Z " fill-rule="nonzero" fill="#ffffff" stroke="none" />
    </g>
  </defs>
  <g transform="matrix(1 0 0 1 -576 -41 )">
    <use xlink:href="#widget62" filter="url(#filter61)" />
    <use xlink:href="#widget62" />
  </g>
</svg>