<?xml version="1.0" encoding="utf-8"?>
<svg version="1.1" xmlns:xlink="http://www.w3.org/1999/xlink" width="40px" height="50px" xmlns="http://www.w3.org/2000/svg">
  <defs>
    <filter x="681px" y="436px" width="40px" height="50px" filterUnits="userSpaceOnUse" id="filter69">
      <feOffset dx="1" dy="1" in="SourceAlpha" result="shadowOffsetInner" />
      <feGaussianBlur stdDeviation="2.5" in="shadowOffsetInner" result="shadowGaussian" />
      <feComposite in2="shadowGaussian" operator="atop" in="SourceAlpha" result="shadowComposite" />
      <feColorMatrix type="matrix" values="0 0 0 0 0  0 0 0 0 0  0 0 0 0 0  0 0 0 0.698039215686274 0  " in="shadowComposite" />
    </filter>
    <g id="widget70">
      <path d="M 700 479.036928468354  C 694.2 469.40734059591  685.5 463.629587872444  685.5 454  C 685.5 448.985714285714  688.4 440.5  700 440.5  C 711.6 440.5  714.5 448.985714285714  714.5 454  C 714.5 463.629587872444  705.8 469.40734059591  700 479.036928468354  Z " fill-rule="nonzero" fill="#00ac57" stroke="none" />
      <path d="M 700 480  C 694 470  685 464  685 454  C 685 448.8  688 440  700 440  C 712 440  715 448.8  715 454  C 715 464  706 470  700 480  Z M 700 478.073856936707  C 705.6 468.81468119182  714 463.259175744887  714 454  C 714 449.171428571429  711.2 441  700 441  C 688.8 441  686 449.171428571429  686 454  C 686 463.259175744887  694.4 468.81468119182  700 478.073856936707  Z " fill-rule="nonzero" fill="#ffffff" stroke="none" />
    </g>
  </defs>
  <g transform="matrix(1 0 0 1 -681 -436 )">
    <use xlink:href="#widget70" filter="url(#filter69)" />
    <use xlink:href="#widget70" />
  </g>
</svg>