<?xml version="1.0" encoding="utf-8"?>
<svg version="1.1" xmlns:xlink="http://www.w3.org/1999/xlink" width="40px" height="50px" xmlns="http://www.w3.org/2000/svg">
  <defs>
    <filter x="681px" y="842px" width="40px" height="50px" filterUnits="userSpaceOnUse" id="filter37">
      <feOffset dx="1" dy="1" in="SourceAlpha" result="shadowOffsetInner" />
      <feGaussianBlur stdDeviation="2.5" in="shadowOffsetInner" result="shadowGaussian" />
      <feComposite in2="shadowGaussian" operator="atop" in="SourceAlpha" result="shadowComposite" />
      <feColorMatrix type="matrix" values="0 0 0 0 0  0 0 0 0 0  0 0 0 0 0  0 0 0 0.698039215686274 0  " in="shadowComposite" />
    </filter>
    <g id="widget38">
      <path d="M 700 885.036928468354  C 694.2 875.40734059591  685.5 869.629587872444  685.5 860  C 685.5 854.985714285714  688.4 846.5  700 846.5  C 711.6 846.5  714.5 854.985714285714  714.5 860  C 714.5 869.629587872444  705.8 875.40734059591  700 885.036928468354  Z " fill-rule="nonzero" fill="#ac0075" stroke="none" />
      <path d="M 700 886  C 694 876  685 870  685 860  C 685 854.8  688 846  700 846  C 712 846  715 854.8  715 860  C 715 870  706 876  700 886  Z M 700 884.073856936707  C 705.6 874.81468119182  714 869.259175744887  714 860  C 714 855.171428571429  711.2 847  700 847  C 688.8 847  686 855.171428571429  686 860  C 686 869.259175744887  694.4 874.81468119182  700 884.073856936707  Z " fill-rule="nonzero" fill="#ffffff" stroke="none" />
    </g>
  </defs>
  <g transform="matrix(1 0 0 1 -681 -842 )">
    <use xlink:href="#widget38" filter="url(#filter37)" />
    <use xlink:href="#widget38" />
  </g>
</svg>