<?xml version="1.0" encoding="utf-8"?>
<svg version="1.1" xmlns:xlink="http://www.w3.org/1999/xlink" width="40px" height="50px" xmlns="http://www.w3.org/2000/svg">
  <defs>
    <filter x="681px" y="1216px" width="40px" height="50px" filterUnits="userSpaceOnUse" id="filter39">
      <feOffset dx="1" dy="1" in="SourceAlpha" result="shadowOffsetInner" />
      <feGaussianBlur stdDeviation="2.5" in="shadowOffsetInner" result="shadowGaussian" />
      <feComposite in2="shadowGaussian" operator="atop" in="SourceAlpha" result="shadowComposite" />
      <feColorMatrix type="matrix" values="0 0 0 0 0  0 0 0 0 0  0 0 0 0 0  0 0 0 0.698039215686274 0  " in="shadowComposite" />
    </filter>
    <g id="widget40">
      <path d="M 700 1259.03692846835  C 694.2 1249.40734059591  685.5 1243.62958787244  685.5 1234  C 685.5 1228.98571428571  688.4 1220.5  700 1220.5  C 711.6 1220.5  714.5 1228.98571428571  714.5 1234  C 714.5 1243.62958787244  705.8 1249.40734059591  700 1259.03692846835  Z " fill-rule="nonzero" fill="#8c8a00" stroke="none" />
      <path d="M 700 1260  C 694 1250  685 1244  685 1234  C 685 1228.8  688 1220  700 1220  C 712 1220  715 1228.8  715 1234  C 715 1244  706 1250  700 1260  Z M 700 1258.07385693671  C 705.6 1248.81468119182  714 1243.25917574489  714 1234  C 714 1229.17142857143  711.2 1221  700 1221  C 688.8 1221  686 1229.17142857143  686 1234  C 686 1243.25917574489  694.4 1248.81468119182  700 1258.07385693671  Z " fill-rule="nonzero" fill="#ffffff" stroke="none" />
    </g>
  </defs>
  <g transform="matrix(1 0 0 1 -681 -1216 )">
    <use xlink:href="#widget40" filter="url(#filter39)" />
    <use xlink:href="#widget40" />
  </g>
</svg>