<?xml version="1.0" encoding="utf-8"?>
<svg version="1.1" xmlns:xlink="http://www.w3.org/1999/xlink" width="40px" height="50px" xmlns="http://www.w3.org/2000/svg">
  <defs>
    <filter x="269px" y="1541px" width="40px" height="50px" filterUnits="userSpaceOnUse" id="filter383">
      <feOffset dx="1" dy="1" in="SourceAlpha" result="shadowOffsetInner" />
      <feGaussianBlur stdDeviation="2.5" in="shadowOffsetInner" result="shadowGaussian" />
      <feComposite in2="shadowGaussian" operator="atop" in="SourceAlpha" result="shadowComposite" />
      <feColorMatrix type="matrix" values="0 0 0 0 0  0 0 0 0 0  0 0 0 0 0  0 0 0 0.698039215686274 0  " in="shadowComposite" />
    </filter>
    <g id="widget384">
      <path d="M 288 1584.03692846835  C 282.2 1574.40734059591  273.5 1568.62958787244  273.5 1559  C 273.5 1553.98571428571  276.4 1545.5  288 1545.5  C 299.6 1545.5  302.5 1553.98571428571  302.5 1559  C 302.5 1568.62958787244  293.8 1574.40734059591  288 1584.03692846835  Z " fill-rule="nonzero" fill="#ac0075" stroke="none" />
      <path d="M 288 1585  C 282 1575  273 1569  273 1559  C 273 1553.8  276 1545  288 1545  C 300 1545  303 1553.8  303 1559  C 303 1569  294 1575  288 1585  Z M 288 1583.07385693671  C 293.6 1573.81468119182  302 1568.25917574489  302 1559  C 302 1554.17142857143  299.2 1546  288 1546  C 276.8 1546  274 1554.17142857143  274 1559  C 274 1568.25917574489  282.4 1573.81468119182  288 1583.07385693671  Z " fill-rule="nonzero" fill="#ffffff" stroke="none" />
    </g>
  </defs>
  <g transform="matrix(1 0 0 1 -269 -1541 )">
    <use xlink:href="#widget384" filter="url(#filter383)" />
    <use xlink:href="#widget384" />
  </g>
</svg>