<?xml version="1.0" encoding="utf-8"?>
<svg version="1.1" xmlns:xlink="http://www.w3.org/1999/xlink" width="233px" height="233px" xmlns="http://www.w3.org/2000/svg">
  <g transform="matrix(1 0 0 1 -502 -504 )">
    <path d="M 618.5 541  C 663.02 541  698 575.98  698 620.5  C 698 665.02  663.02 700  618.5 700  C 573.98 700  539 665.02  539 620.5  C 539 575.98  573.98 541  618.5 541  Z " fill-rule="nonzero" fill="#ffffff" stroke="none" fill-opacity="0" />
    <path d="M 618.5 523  C 673.1 523  716 565.9  716 620.5  C 716 675.1  673.1 718  618.5 718  C 563.9 718  521 675.1  521 620.5  C 521 565.9  563.9 523  618.5 523  Z " stroke-width="38" stroke="#555555" fill="none" />
  </g>
</svg>